<svg width="24" height="24" viewBox="0 0 24 24" fill="none" xmlns="http://www.w3.org/2000/svg">
<path d="M17.75 14C19.9591 14 21.75 15.7909 21.75 18C21.75 20.2091 19.9591 22 17.75 22C15.5409 22 13.75 20.2091 13.75 18C13.75 15.7909 15.5409 14 17.75 14ZM8.5 3.75H15V2H16.5V3.75H17.75C18.2034 3.75 18.8669 3.8795 19.4385 4.29102C20.0483 4.73006 20.5 5.45556 20.5 6.5V13.8232C20.0463 13.5239 19.5408 13.2964 19 13.1572V10.75H4.5V18.5C4.5 19.0556 4.71493 19.3303 4.93848 19.4912C5.20025 19.6796 5.53671 19.75 5.75 19.75H13.0654C13.2722 20.3031 13.574 20.8096 13.9512 21.25H5.75C5.29665 21.25 4.63307 21.1205 4.06152 20.709C3.45174 20.2699 3 19.5444 3 18.5V6.5C3 6.04665 3.1295 5.38307 3.54102 4.81152C3.98006 4.20174 4.70556 3.75 5.75 3.75H7V2H8.5V3.75ZM17.75 15.5C17.4739 15.5 17.25 15.7239 17.25 16V17.5H15.75C15.4739 17.5 15.25 17.7239 15.25 18C15.25 18.2761 15.4739 18.5 15.75 18.5H17.25V20C17.25 20.2761 17.4739 20.5 17.75 20.5C18.0261 20.5 18.25 20.2761 18.25 20V18.5H19.75C20.0261 18.5 20.25 18.2761 20.25 18C20.25 17.7239 20.0261 17.5 19.75 17.5H18.25V16C18.25 15.7239 18.0261 15.5 17.75 15.5ZM8.5 17H7V15.5H8.5V17ZM12.5 17H11V15.5H12.5V17ZM8.5 13.5H7V12H8.5V13.5ZM12.5 13.5H11V12H12.5V13.5ZM16.5 13.1572C16.1755 13.2407 15.8639 13.3565 15.5684 13.5H15V12H16.5V13.1572ZM5.75 5.25C5.19444 5.25 4.91974 5.46493 4.75879 5.68848C4.57036 5.95025 4.5 6.28671 4.5 6.5V9.25H19V6.5C19 5.94444 18.7851 5.66974 18.5615 5.50879C18.2998 5.32036 17.9633 5.25 17.75 5.25H5.75Z" fill="black"/>
</svg>
