<svg width="24" height="24" viewBox="0 0 24 24" fill="none" xmlns="http://www.w3.org/2000/svg">
<path fill-rule="evenodd" clip-rule="evenodd" d="M19.9846 9.5C19.9529 8.98532 19.8725 8.4838 19.748 8C18.8599 4.54955 15.7277 2 12 2C8.27232 2 5.14012 4.54955 4.25203 8C4.12751 8.4838 4.04711 8.98532 4.01537 9.5H4V10V13C4 13.2464 3.94335 13.4057 3.88763 13.5026C3.83707 13.5905 3.77091 13.688 3.68348 13.8132L3.65156 13.8589C3.57619 13.9665 3.48745 14.0933 3.40615 14.2223C3.22756 14.5055 3 14.9247 3 15.4231V16.5C3 17.4665 3.7835 18.25 4.75 18.25H7H7.75H8.00769C8.13673 20.3427 9.87482 22 12 22C14.1252 22 15.8633 20.3427 15.9923 18.25H16.25H17H19.25C20.2165 18.25 21 17.4665 21 16.5V15.4231C21 14.9247 20.7724 14.5055 20.5939 14.2223C20.5126 14.0933 20.4239 13.9666 20.3485 13.8589L20.3485 13.8589L20.3484 13.8589L20.3165 13.8132C20.2291 13.688 20.1629 13.5905 20.1124 13.5026C20.0566 13.4057 20 13.2464 20 13V10V9.5H19.9846ZM14.4877 18.25H9.51234C9.63777 19.5133 10.7037 20.5 12 20.5C13.2963 20.5 14.3622 19.5133 14.4877 18.25ZM5.5 13V10C5.5 6.41015 8.41015 3.5 12 3.5C15.5899 3.5 18.5 6.41015 18.5 10V13C18.5 13.4851 18.6142 13.9064 18.8122 14.2506C18.8993 14.4021 19.0005 14.5485 19.0866 14.6719L19.1209 14.7209L19.1209 14.7209C19.1981 14.8313 19.2644 14.9261 19.325 15.0223C19.4714 15.2545 19.5 15.3692 19.5 15.4231V16.5C19.5 16.6381 19.3881 16.75 19.25 16.75H17H16.25H7.75H7H4.75C4.61193 16.75 4.5 16.6381 4.5 16.5V15.4231C4.5 15.3692 4.52859 15.2545 4.67501 15.0223C4.73561 14.9261 4.8019 14.8313 4.8791 14.7209L4.91341 14.6719C4.9995 14.5485 5.10066 14.4021 5.18781 14.2506C5.38585 13.9064 5.5 13.4851 5.5 13Z" fill="black"/>
</svg>
