<svg width="22" height="18" viewBox="0 0 22 18" fill="none" xmlns="http://www.w3.org/2000/svg">
<path d="M1 16.4583V15.4699V14.4815V13.4932V12.5048V11.5164V10.528V9.53959V8.5512V7.56281V7.06861V6.57441V6.08022V5.58602V5.09183V4.59763V4.10344V3.60924V3.11505V2.62085" stroke="#252525" stroke-width="1.5" stroke-linecap="round" stroke-linejoin="round"/>
<path d="M21 2.62085V4.87943V5.32477V5.77011V6.6608V7.55148V8.44217V9.33285V10.2235V11.1142V12.0049V12.8956V13.7863V14.677V15.5676V16.4583" stroke="#252525" stroke-width="1.5" stroke-linecap="round" stroke-linejoin="round"/>
<path d="M1 2.6209C2.5 1.02418 5.5 -0.040254 11 2.6209" stroke="#252525" stroke-width="1.5" stroke-linecap="round"/>
<path d="M1 17.0148C2.5 15.4181 5.5 14.3537 11 17.0148" stroke="#252525" stroke-width="1.5" stroke-linecap="round"/>
<path d="M21 2.6209C19.5 1.02418 16.5 -0.040254 11 2.6209" stroke="#252525" stroke-width="1.5" stroke-linecap="round"/>
<path d="M21 17.0148C19.5 15.4181 16.5 14.3537 11 17.0148" stroke="#252525" stroke-width="1.5" stroke-linecap="round"/>
<path d="M11 2V3.1463V4.2926V5.4389V6.01205V6.5852V7.7315V8.8778V9.45095V10.5973V11.1704V11.7436V12.3167V12.8899V13.463V14.0362V14.6093C11 14.6093 11 14.6093 11 14.6093C11 14.6093 11 14.7239 11 15.1825C11 15.641 11 16.1377 11 16.3288V16.9019" stroke="#252525" stroke-width="1.5"/>
</svg>
