<svg width="16" height="16" viewBox="0 0 16 16" fill="none" xmlns="http://www.w3.org/2000/svg">
<path d="M8.36035 4.01392C9.73223 2.5885 11.1756 2.45823 12.25 2.94946C13.356 3.45525 14.166 4.65844 14.166 6.09204C14.166 7.55657 13.5673 8.68602 12.708 9.65356C11.8316 10.6404 10.7263 11.4182 9.71582 12.2141H9.71484C9.36471 12.4907 9.05215 12.7333 8.75098 12.9094C8.4496 13.0856 8.2064 13.1662 8 13.1663C7.79366 13.1663 7.5507 13.0857 7.24902 12.9094C6.9475 12.7332 6.63482 12.4904 6.28418 12.2141C5.27379 11.4173 4.16859 10.6396 3.29199 9.65259C2.43263 8.68494 1.83301 7.5559 1.83301 6.09106C1.83305 4.65728 2.64322 3.45505 3.74902 2.94946C4.82345 2.45835 6.26759 2.5882 7.63965 4.01392L8 4.38794L8.36035 4.01392Z" stroke="#006DFF"/>
</svg>
