<svg width="22" height="22" viewBox="0 0 22 22" fill="none" xmlns="http://www.w3.org/2000/svg">
<path fill-rule="evenodd" clip-rule="evenodd" d="M2 1H15V2.5H2.5V15H1V2C1 1.44772 1.44772 1 2 1ZM3 19H18C18.5523 19 19 18.5523 19 18V3H17.5V17.5H3V19Z" fill="black"/>
<line x1="20.5303" y1="0.53033" x2="0.53033" y2="20.5303" stroke="black" stroke-width="1.5"/>
<path fill-rule="evenodd" clip-rule="evenodd" d="M5.76475 8.21257C5.86658 8.12206 6.02213 8.12975 6.11454 8.22986L7.86923 10.1308L8.93074 9.06926L7.21675 7.21244C6.56988 6.51166 5.481 6.45786 4.7682 7.09146L1.00171 10.4395L1.99825 11.5606L5.76475 8.21257ZM9.94897 10.1723L8.88746 11.2339L10.7429 13.2439C11.4171 13.9743 12.5635 13.9972 13.2663 13.2944L14.3688 12.1919C14.4618 12.0988 14.6111 12.0938 14.7102 12.1805L18.0061 15.0644L18.9939 13.9356L15.6979 11.0516C15.0046 10.445 13.9596 10.4798 13.3081 11.1312L12.2056 12.2337C12.1052 12.3341 11.9414 12.3309 11.8451 12.2265L9.94897 10.1723Z" fill="black"/>
</svg>
