<svg width="16" height="16" viewBox="0 0 16 16" fill="none" xmlns="http://www.w3.org/2000/svg">
<path d="M12.0003 6.94718C12.0003 4.70099 10.4135 2.66659 8.00033 2.66659C5.58714 2.66659 4.00037 4.70099 4.00033 6.94718C4.00033 8.10532 4.26542 9.06855 4.93717 10.0585C5.54109 10.9484 6.50241 11.9006 8.00033 13.0201C9.49824 11.9006 10.4596 10.9484 11.0635 10.0585C11.7352 9.06855 12.0003 8.10532 12.0003 6.94718ZM13.3337 6.94718C13.3337 9.7542 12.0003 11.8596 8.00033 14.6666C4.00033 11.8596 2.66699 9.7542 2.66699 6.94718C2.66704 4.1402 4.68666 1.33325 8.00033 1.33325C11.314 1.33325 13.3336 4.1402 13.3337 6.94718Z" fill="#545961"/>
<path d="M9.33366 6.66659C9.33366 7.40297 8.73671 7.99992 8.00033 7.99992C7.26395 7.99992 6.66699 7.40297 6.66699 6.66659C6.66699 5.93021 7.26395 5.33325 8.00033 5.33325C8.73671 5.33325 9.33366 5.93021 9.33366 6.66659Z" fill="#545961"/>
</svg>
