<svg width="24" height="24" viewBox="0 0 24 24" fill="none" xmlns="http://www.w3.org/2000/svg">
<path fill-rule="evenodd" clip-rule="evenodd" d="M8.48722 17.4702L7.90218 17.0935L7.23677 17.2969L5.82766 17.7276C5.66068 17.7787 5.48058 17.7077 5.39328 17.5565L3.88462 14.9434C3.79732 14.7922 3.82593 14.6008 3.95361 14.4817L5.03192 13.476L5.53956 13.0026L5.50722 12.3091C5.50244 12.2068 5.50002 12.1037 5.50002 12C5.50002 11.8963 5.50244 11.7932 5.50722 11.6908L5.53956 10.9974L5.03192 10.524L3.95352 9.51823C3.82584 9.39915 3.79723 9.2077 3.88453 9.05649L5.39319 6.44341C5.48049 6.29221 5.66059 6.22126 5.82757 6.27229L7.23684 6.70304L7.90224 6.90643L8.48727 6.52979C8.66004 6.41856 8.83834 6.31534 9.02163 6.22065L9.63844 5.90198L9.79466 5.22552L10.126 3.79062C10.1653 3.6205 10.3168 3.5 10.4914 3.5H13.5087C13.6833 3.5 13.8348 3.6205 13.8741 3.79062L14.2055 5.22559L14.3617 5.90204L14.9785 6.22071C15.1618 6.31539 15.3401 6.4186 15.5128 6.52982L16.0979 6.90647L16.7633 6.70308L18.1727 6.27229C18.3396 6.22126 18.5198 6.29221 18.607 6.44341L20.1157 9.05649C20.203 9.2077 20.1744 9.39915 20.0467 9.51823L18.9681 10.5242L18.4605 10.9976L18.4928 11.691C18.4976 11.7933 18.5 11.8963 18.5 12C18.5 12.1037 18.4976 12.2067 18.4928 12.309L18.4605 13.0024L18.9681 13.4758L20.0466 14.4817C20.1743 14.6008 20.2029 14.7922 20.1156 14.9434L18.607 17.5565C18.5197 17.7077 18.3396 17.7787 18.1726 17.7276L16.7633 17.2969L16.0979 17.0935L15.5129 17.4701C15.3401 17.5814 15.1618 17.6846 14.9785 17.7793L14.3617 18.098L14.2055 18.7744L13.8741 20.2094C13.8348 20.3795 13.6833 20.5 13.5087 20.5H10.4914C10.3168 20.5 10.1653 20.3795 10.126 20.2094L9.79466 18.7745L9.63844 18.098L9.02163 17.7793C8.83832 17.6846 8.66 17.5814 8.48722 17.4702ZM2.93054 13.3847L4.00884 12.379C4.00299 12.2534 4.00002 12.1271 4.00002 12C4.00002 11.8729 4.00299 11.7466 4.00884 11.621L2.93045 10.6152C2.29202 10.0198 2.149 9.06253 2.58549 8.30649L4.09415 5.69341C4.53065 4.93738 5.43116 4.58262 6.26603 4.8378L7.6753 5.26856C7.88789 5.1317 8.10737 5.00463 8.33313 4.888L8.6645 3.45309C8.86094 2.60249 9.61843 2 10.4914 2H13.5087C14.3817 2 15.1392 2.60249 15.3357 3.45309L15.6671 4.88806C15.8928 5.00469 16.1122 5.13175 16.3248 5.2686L17.7342 4.8378C18.5691 4.58262 19.4696 4.93738 19.9061 5.69341L21.4148 8.30649C21.8512 9.06253 21.7082 10.0198 21.0698 10.6152L19.9912 11.6211C19.9971 11.7467 20 11.873 20 12C20 12.127 19.9971 12.2533 19.9912 12.3789L21.0697 13.3847C21.7081 13.9801 21.8512 14.9374 21.4147 15.6934L19.906 18.3065C19.4695 19.0625 18.569 19.4173 17.7341 19.1621L16.3249 18.7314C16.1123 18.8682 15.8928 18.9953 15.6671 19.1119L15.3357 20.5469C15.1392 21.3975 14.3817 22 13.5087 22H10.4914C9.61843 22 8.86094 21.3975 8.66451 20.5469L8.33313 19.112C8.10735 18.9954 7.88784 18.8683 7.67523 18.7314L6.26611 19.1621C5.43125 19.4173 4.53074 19.0625 4.09424 18.3065L2.58558 15.6934C2.14908 14.9374 2.29211 13.9801 2.93054 13.3847ZM9.25 12C9.25 10.4812 10.4812 9.25 12 9.25C13.5188 9.25 14.75 10.4812 14.75 12C14.75 13.5188 13.5188 14.75 12 14.75C10.4812 14.75 9.25 13.5188 9.25 12ZM12 7.75C9.65279 7.75 7.75 9.65279 7.75 12C7.75 14.3472 9.65279 16.25 12 16.25C14.3472 16.25 16.25 14.3472 16.25 12C16.25 9.65279 14.3472 7.75 12 7.75Z" fill="#252525"/>
</svg>
